<?xml version="1.0" encoding="utf-8"?>
<svg viewBox="48.843 742.933 1884.319 416.447" xmlns="http://www.w3.org/2000/svg">
  <path transform="matrix(1, 0, 0, 1, 232.00000000000003, 764)" d="m0 0h48l24 3 17 5 16 7 14 7 12 8 14 11 8 7v2l4 2 12 14 12 17 10 18 9 23 5 18 2 13v50l-3 22-5 17-8 18-6 11-10 16-11 14-12 13-7 7-10 8-10 7-18 10-14 6-16 5-24 4-20 2h-18l-26-3-20-4-21-7-17-9-12-8-16-13-15-15-14-19-9-15-9-17-7-19-3-15-3-22v-33l4-30 4-13 7-18 14-25 12-16 11-13 10-10 17-13 11-7 25-12 15-5zm4 3-9 2v39l-1 39 3 7 10 16 8 13 6 10h1v-75l-1-16-5-11-1-24zm37 0-6 1v20l-3 10-3 9v77l3 4 4-5 12-20 8-16v-21l-2-29-1-5v-7l1-4v-11l-3-2zm-71 9-15 6-9 4 2 4 10 11 11 14 8 10 8 9 2-3v-14l-2-10-5-13-4-10-1-8zm106 0-1 5-5 14-5 11-1 21v9l5-5 10-11 10-13 13-17 2-5-14-5-11-4zm35 14-12 14-11 14-3 5 2 1h10l13-2 11-8 7-8-3-5-5-5-7-6zm-175 1-12 11 1 7 5 7 10 5 9 2 16 1-1-4-10-13-11-13-2-3zm-30 24-4 3v2h-2l-8 10 1 5 14 9 21 10h4l6-17 5 1 8 7 7 11 1 1h21l8-1-1-4-7-11-9-10-1-1-21-1-16-3-15-5-10-6zm236 1-12 6-14 5-13 2-20 1-5 2-7 7-9 14v3l9 1h21l12-15 5-5h5l6 16 5 1 17-9 14-10 3-4-9-12-3-3zm-258 25-8 9-9 17-2 5 1 5 7 10 9 11 12 13 10 10 17 13 10 5-1-11-5-14-5-8-5-6-15-10-7-8-2-6v-11l1-2h7l12 6 5 8 6 16 13 28 3 9 3 13 5 5 10 6h2v-24l-1-26-2-16-5-10-9-10-14-8-10-5-26-11-5-3zm281 0-12 5-27 12-15 10-10 10-4 6-2 5-2 13-1 14v37l2 1 10-5 6-4 4-18 8-20 8-16 8-20 1-3 5-2 7-3h8l1 2v14l-4 6-9 8-10 6-8 9-6 13-4 12v6l6-1 14-12 9-8 8-7 10-9 11-14 9-14-2-6-8-16-8-10zm-175 22-33 5-1 5 3 9 4 4h10l5 10 1 9-11 23-2 13v26l4 39 3 11 3 7 11 11 10 8 3 1-1-9-3-15-6-9-8-11-4-12 1-7 3-5 6 1 7 4 4 6 2 6 2 24 3 19 2 17 9 10 5 5 2-1-3-39-9-44-5-15-8-12-10-11-1-2-1-25 8 3 11 8 4 5 2 15 2 17 7 16h4l-2-31-1-26-2-12-8-20-8-16-7-11-4-4zm66 1-6 8-14 27-6 17-1 6v26l2 30 2 2 6-12 2-32 5-5 5-6 6-4 5 1 2 10v9l-4 6-11 14-8 17-6 24-5 30-1 12v23l4-2 10-11 2-3 1-8 2-40 2-10 6-12 7-4h7l1 2v14l-3 8-9 12-4 7-3 15v7h3l9-8 8-7 6-12 6-31 1-15v-23l-2-16-10-24-1-17 15-4 4-2 2-3v-12l-5-2-18-2zm-197 19-4 11-1 11 22 5h5l-3-5-10-13-7-9zm329 0-14 21-2 5 10-1 14-4-1-8-4-13zm-166 10m173 18-14 3-15 3-12 6-17 14-2 2 1 5 6 1 10-4 14-5h10l10 4h2l-1 7-8 7-9 2h-10l-17-3-13-3h-12l-11 4-10 7-4 5-1 3-2 23-4 20v6l10-4 19-10 3-2-2-6-3-6-1-13 3-9 7-8h5l2 5 3 7v25l16-4 19-5 10-4 5-6 16-27 3-6 1-7-1-21-2-6zm-343 1-2 5-2 9-1 15 2 5 6 8 10 17 7 9 7 6 9 4 18 4 7 2h4l2-23 2-7 1-1h8l6 4 3 6v9l-2 9-3 6 1 4 26 14 4 1-3-23-4-24-4-8-4-5-11-6-4-1h-20l-20 4-8 1h-10l-6-3-7-6h-2l2-5 12-6h12l18 9h9l1-4-15-15-11-7-9-3-24-4zm-6 45m1 1 2 4 4 4-2-5-2-3zm6 8 3 11-6-2 5 7 9 1-1-4-8-12zm344 0-5 6-3 6 2 4h7l2-4v-11zm-342 24-1 2 6 20 10 20 12 19 13 16 13 13 14 11 15 10 19 10 21 7 25 5 10 1h10v-38l-2-5-11-13-9-10-15-15-16-12-21-13-21-10-28-10-41-8zm332 1-24 4-19 5-25 9-16 8-16 9-16 12-10 9-6 5v2h-2l-9 11-7 7-6 8-2 9v33l1 2h9l18-2 21-5 16-6 19-10 19-13 10-9 8-6v-2h2l7-8 12-15 9-15 8-16 7-18 1-8z" fill="#06B46C"/>
  <path transform="matrix(1, 0, 0, 1, 1424.9999999999998, 961)" d="m0 0 4 2 10 25 10 24 2-4 7-25 5-13 2-7h3l3 7 6 20 6 32 4 21v4l-6 1-7-2-3-9-3-22v-8l-3 1-8 16-5 13-2 7-2 1-4-4-5-11-7-19v-3h-3l-1 10-5 21-3 8-5 1-7-1 1-8 7-36 7-32z" fill="#06B46C"/>
  <path d="m0 0h34l7 3 5 5 3 8 1 16 3 7 6 9 1 3v15l-4 8-6 7-9 5-9 1h-30l-2-6-1-8v-72zm15 12-2 2v17h11l11-1 2-2v-10l-3-5-2-1zm-2 31v32h20l8-4 4-5 1-3v-11l-3-5-4-3-3-1z" fill="#06B46C" transform="matrix(1, 0, 0, 1, 1502, 961)"/>
  <path transform="matrix(1, 0, 0, 1, 1056, 960)" d="m0 0h17l13 4 10 6 7 8 7 14 1 4v15l-3 10-5 9-9 10-9 6-6 2-9 1h-9l-10-2-10-5-9-9-6-10-4-12v-14l4-11 7-11 5-5 8-6zm7 11-10 4-9 7-6 9-2 5-1 6v8l2 8 4 6 8 8 8 4 3 1h13l9-4 7-5 6-10 2-6v-15l-4-10-8-9-12-6z" fill="#06B46C"/>
  <path transform="matrix(1, 0, 0, 1, 629, 960)" d="m0 0h16l13 4 9 6 7 7 7 14 2 11-1 13-4 10-4 6-8 9-7 5-9 3-17 1-14-3-8-6-5-4-7-10-5-11-1-4v-13l4-11 7-11 5-6 11-7zm6 11-9 3-9 7-7 10-3 7v15l5 10 7 8 10 5 3 1h13l10-4 8-7 6-12v-17l-4-9-6-8-9-6-9-3z" fill="#06B46C"/>
  <path transform="matrix(1, 0, 0, 1, 1715.9999999999998, 960)" d="m0 0h12l1 1v86l-4-1-11-11-9-11-15-16-8-10-1 49-5 1-8-1-1-35v-50l5 2 12 12 9 11 11 12 8 10 3 4v-52z" fill="#09B56E"/>
  <path transform="matrix(1, 0, 0, 1, 743.9999999999998, 960)" d="m0 0h13l1 87-5-1-12-12-7-8-7-7-7-8-11-12v-2h-2l1 50-1 1h-11v-86l4 2 12 13 7 8 12 13 8 10 2 4h2v-36z" fill="#06B46C"/>
  <path transform="matrix(1, 0, 0, 1, 1125, 961)" d="m0 0h31l11 4 8 7 5 10 1 3v10l-5 10-6 9 1 9 7 16 3 8-2 1h-7l-6-2-3-4-7-18-1-4-18-1v28l-5 1-8-1-1-65 1-20zm17 11-5 4-1 6v20l1 5 10 1 9-2 6-4 5-6 1-7-3-8-7-7-5-2z" fill="#06B46C"/>
  <path transform="matrix(1, 0, 0, 1, 837.9999999999998, 959)" d="m0 0 15 2v62l3 8 5 3h9l6-3 3-4 2-67 13 1 1 1v43l-1 24-2 5-9 10-8 4h-17l-8-4-5-5-5-8-2-6z" fill="#06B46C"/>
  <path transform="matrix(1, 0, 0, 1, 1107, 843)" d="m0 0h11l11 3 10 6 7 7 6 12 1 3v17l-4 11-6 8-7 7-9 4-4 1h-18l-10-3-10-9-6-8-4-10-1-5v-9l3-11 6-9 4-5 11-7zm6 11-9 2-9 6-6 9-2 6v15l4 7 4 5 9 6 9 2 9-1 10-6 7-10 2-8-1-12-5-10-8-8-5-2z" fill="#06B46C"/>
  <path transform="matrix(1, 0, 0, 1, 916, 843)" d="m0 0h9l12 3 10 6 8 9 5 11 1 3v16l-4 11-6 8-8 8-7 3-5 1h-19l-9-3-10-9-6-8-4-10-1-4v-11l3-10 7-11 7-6 12-6zm4 11-9 2-8 6-7 11-2 9 1 10 3 6 4 5 10 7 7 2h7l9-3 8-7 5-10 1-12-2-9-6-9-6-5-5-2z" fill="#06B46C"/>
  <path transform="matrix(1, 0, 0, 1, 550, 959)" d="m0 0h11l13 4 6 4 4 5-1 6-3 4-5-2-12-5-4-1h-7l-11 4-7 6-5 10-1 4v15l3 7 4 6 6 5 6 3 5 1h7l10-3 9-5 4-2 4 6-1 5-5 5-5 4-7 3-16 1-14-3-11-8-7-8-6-12-2-7v-13l4-13 7-11 11-9 12-5z" fill="#06B46C"/>
  <path transform="matrix(1, 0, 0, 1, 513, 844)" d="m0 0h22l14 2 12 6 8 8 5 10 1 4v19l-3 8-9 10-7 6-8 3-6 1-23 1-7-2-1-11v-62zm12 11-2 1-1 48 1 7h13l13-4 8-6 4-7 1-3v-16l-3-7-7-8-8-4-7-1z" fill="#06B46C"/>
  <path transform="matrix(1, 0, 0, 1, 1254, 963.0000000000001)" d="m0 0 4 1 13 32 11 28 7 21v3h-10l-5-3-3-8v-2l-32 1-5 11h-14l3-9 13-35 12-29zm0 33-4 7-6 15v4h21l-2-9-6-15z" fill="#06B46C"/>
  <path transform="matrix(1, 0, 0, 1, 1364, 961)" d="m0 0 4 2 15 37 8 21 8 22v4l-8 1-5-2-5-10-32-1-1 6-3 6-13 1-1-3 4-8 9-26 13-33zm0 35-4 8-6 17 2 1h19l-3-12-5-13z" fill="#06B46C"/>
  <path transform="matrix(1, 0, 0, 1, 1830.9999999999998, 963.0000000000001)" d="m0 0h4l4 11 7 20 10 26 7 17 2 10-2 1h-7l-5-2-4-10h-32l-4 11h-13l1-7 7-20 8-20 6-16 8-18zm1 31-3 4-9 22v2h21l-1-7-5-18z" fill="#06B46C"/>
  <path transform="matrix(1, 0, 0, 1, 1299, 844)" d="m0 0h28l11 4 7 7 4 9v12l-5 9-3 4v7l5 15 4 7v3h-12l-6-8-6-14-1-3h-13l-1 24-1 1h-11l-1-36v-15zm16 10-3 1-1 2v28l1 1 11-1 9-4 5-6v-8l-3-6-7-6-3-1z" fill="#06B46C"/>
  <path transform="matrix(1, 0, 0, 1, 1621, 844)" d="m0 0h24l11 3 9 8 4 9v12l-6 11-3 3 1 7 5 15 3 6-1 4-10-1-4-5-9-19-2-1-12-1v26l-5 1-7-1-1-32v-34l1-9zm17 10-7 2-1 10v14l1 5h13l10-5 3-5 1-5-4-10-7-5z" fill="#06B46C"/>
  <path transform="matrix(1, 0, 0, 1, 794.9999999999999, 958)" d="m0 0 12 2 9 4 7 5-1 5-6 4-5-1-11-4-5 1-5 5-3 5 2 5 22 15 10 9 3 5 1 9-5 10-9 9-5 2h-16l-8-3-11-8-2-3v-8l2-4 5 1 14 10 5 2h7l7-6 1-6-5-6-15-10-9-7-7-8-1-2v-10l5-10 7-7z" fill="#06B46C"/>
  <path transform="matrix(1, 0, 0, 1, 824, 844)" d="m0 0h28l9 3 6 4 5 8 2 7v7l-4 11-5 5 2 10 6 19v3h-9l-5-4-5-12-3-8-15-1v25h-11l-1-1zm19 10-6 2-1 1-1 18 1 10h13l8-4 5-5 1-7-5-10-6-4z" fill="#06B46C"/>
  <path transform="matrix(1, 0, 0, 1, 771, 844)" d="m0 0h16l10 2 9 6 5 8 1 4v12l-4 8-6 7 3 10 6 13 1 7h-10l-4-3-9-20v-2l-15-1 1 24-2 2h-9l-1-1-1-40v-33l1-2zm10 10-6 2-1 2v27l7 1 12-3 6-7 1-2-1-10-4-6-4-3z" fill="#06B46C"/>
  <path transform="matrix(1, 0, 0, 1, 1607.9999999999998, 960)" d="m0 0h14l30 1 1 2-1 10-1 1h-30l-1 33h27l1 5-1 8h-26v16l30-1 1 1 1 10-1 1h-44z" fill="#06B46C"/>
  <path transform="matrix(1, 0, 0, 1, 1438, 844)" d="m0 0 12 1 1 1v44l1 12 2 5 4 2h9l5-3 2-4 1-10v-47h14l1 2v18l-1 30-2 10-4 8-8 7-5 2h-15l-8-4-6-9-3-8-1-11v-24z" fill="#07B46C"/>
  <path transform="matrix(1, 0, 0, 1, 1223.9999999999998, 843)" d="m0 0h17l10 4 4 4v9l-2 4-5-2-5-4-3-1h-15l-9 5-7 10-2 10 1 11 3 5 7 7 10 4h9l10-4 6-5 4 1 1 9-4 6-8 5-5 1h-17l-11-4-8-7-6-8-4-8-1-4v-16l4-11 6-9 7-6 10-5z" fill="#06B46C"/>
  <path transform="matrix(1, 0, 0, 1, 1387.9999999999998, 843)" d="m0 0h16l11 4 5 4 1 2v10l-2 1-14-7-13-1-8 3-6 5-5 9-1 4v15l3 6 7 7 9 4h12l10-5 5-4 4 2v8l-4 6-5 4-6 2h-19l-9-3-8-6-6-7-5-10-2-6v-14l4-11 6-9 9-8z" fill="#06B46C"/>
  <path transform="matrix(1, 0, 0, 1, 721.9999999999999, 844)" d="m0 0 4 2 11 28 8 21 8 22v4h-9l-10-10h-24l-3 3-4 7-8 1-2-1 1-5 14-41 11-25zm1 30-3 5-7 17v3l7 1h12l-6-23z" fill="#06B46C"/>
  <path transform="matrix(1, 0, 0, 1, 1577.9999999999995, 845.9999999999999)" d="m0 0 5 3 8 18 12 31 7 20 1 4-11-1-4-5-2-4-3-1h-25l-6 10-6 1-2-1v-7l4-14 5-14 7-19 8-19zm-1 29-3 9-4 13 1 3h18l-3-12-4-9-3-4z" fill="#06B46C"/>
  <path transform="matrix(1, 0, 0, 1, 655.9999999999999, 843)" d="m0 0h13l8 3 4 4 1 4-3 6-5-1-7-3h-8l-6 6v5l13 10 11 8 5 5 3 5 1 6-3 9-9 10-8 2h-8l-10-2-8-6-4-5-1-4 3-6 5-1 9 9 9 3 7-2 4-3v-5l-8-9-15-10-7-8-2-3v-8l4-10 8-7z" fill="#06B46C"/>
  <path transform="matrix(1, 0, 0, 1, 586, 844)" d="m0 0h38v11l-1 1h-23l-1 1v27h22l1 1v9l-1 1-22 1v14h25l1 4v7l-35 1-3-1-1-6z" fill="#06B46C"/>
  <path transform="matrix(1, 0, 0, 1, 1007, 959)" d="m0 0h9v13l-1 1-19 1-1 73-1 1h-7l-5-1v-74h-11l-11-1-1-5 1-7z" fill="#06B46C"/>
  <path transform="matrix(1, 0, 0, 1, 1742, 960)" d="m0 0h56v11l-1 1-19 2-1 73-5 1-8-1v-74h-18l-4-1z" fill="#06B46C"/>
  <path transform="matrix(1, 0, 0, 1, 1874.9999999999998, 961)" d="m0 0h14l1 1v74l10-1h20l1 1v11l-38 1-6-1-2-10z" fill="#06B46C"/>
  <path transform="matrix(1, 0, 0, 1, 911.9999999999998, 960)" d="m0 0 13 1v73l33 1v12l-36 1-10-1-1-2v-61z" fill="#06B46C"/>
  <path transform="matrix(1, 0, 0, 1, 972, 844)" d="m0 0 12 1 1 65 29 1 2 2v8l-41 1-3-1-1-5v-71z" fill="#06B46C"/>
  <path transform="matrix(1, 0, 0, 1, 1210, 939)" d="m0 0h6v7l-9 8-7 4v2l7 1 1 5v72l-1 9-1 1h-8l-2-1-1-9v-79h-2l-1-5 6-7 10-7z" fill="#06B46C"/>
  <path transform="matrix(1, 0, 0, 1, 1502, 844)" d="m0 0 11 1 1 1v15l-2 50h29l1 1v9l-35 1-7-2v-60l1-15z" fill="#06B46C"/>
  <path transform="matrix(1, 0, 0, 1, 1024, 844)" d="m0 0 13 1 1 1-1 46-1 19h30l1 1 1 8-1 1-40 1-2-7-1-30z" fill="#06B46C"/>
  <path transform="matrix(1, 0, 0, 1, 1577.9999999999995, 960)" d="m0 0 13 1v71l-1 15-5 1-7-1-1-10v-76z" fill="#06B46C"/>
  <path transform="matrix(1, 0, 0, 1, 1272, 844)" d="m0 0h12l1 1v75l-1 1h-13v-76z" fill="#06B46C"/>
</svg>